<svg width="115" height="115" viewBox="0 0 115 115" fill="none" xmlns="http://www.w3.org/2000/svg">
<circle cx="57.5" cy="57.5" r="57.5" fill="#2BB673"/>
<path d="M57.5 105C83.7336 105 105 83.7336 105 57.5C105 31.2665 83.7336 10 57.5 10C31.2665 10 10 31.2665 10 57.5C10 83.7336 31.2665 105 57.5 105Z" fill="#C7C7C7"/>
<path d="M75.6227 90.9975C75.6227 90.9975 75.6227 90.9974 75.6227 91.272C75.6227 91.8211 75.6227 92.6448 75.6227 93.4685C75.6227 94.5668 75.6227 95.6651 75.3481 97.0379C75.3481 98.1362 75.3481 99.509 75.0736 100.607V101.156C74.799 101.156 74.5244 101.156 74.2498 101.431C73.9753 101.431 73.7007 101.431 73.4261 101.706C68.7585 103.353 63.5418 104.177 58.0504 104.177C52.5591 104.177 52.8336 104.177 50.088 103.627C50.088 103.627 50.088 103.627 49.8134 103.627C47.3423 103.078 44.8712 102.529 42.6747 101.706C42.4001 101.706 42.1255 101.706 41.851 101.431C41.5764 101.431 41.3019 101.431 41.0273 101.156C41.0273 101.156 41.0273 100.607 41.0273 100.333C41.0273 98.9599 40.7527 97.8616 40.7527 96.7633C40.7527 95.3905 40.7527 94.2923 40.4781 93.194C40.4781 92.3703 40.4781 91.5466 40.4781 90.9975C40.4781 90.9975 40.4781 90.9974 40.4781 90.7229C40.4781 90.7229 40.4781 90.7229 40.4781 90.4483C40.4781 90.4483 40.4781 90.1737 40.4781 89.8992C40.4781 89.6246 41.0273 89.3501 41.3019 89.0755C44.3221 87.9772 47.6169 87.1535 50.9117 86.6044C51.1863 86.6044 51.7354 86.6044 52.01 86.6044C52.5591 86.6044 52.8337 86.6044 53.3828 86.6044C53.9319 86.6044 54.4811 86.6044 55.0302 86.6044H55.3048C56.403 86.6044 57.2267 86.6044 58.325 86.6044C59.1487 86.6044 60.247 86.6044 61.3452 86.6044C61.8944 86.6044 62.4435 86.6044 63.2672 86.6044C63.8163 86.6044 64.3654 86.6044 64.64 86.6044H65.1891C68.4839 87.1535 71.7787 87.9772 74.799 89.0755C75.3481 89.0755 75.6227 89.6246 75.6227 89.8992C75.6227 89.8992 75.6227 90.1738 75.6227 90.4483V90.9975Z" fill="#2BB673"/>
<path d="M49.2633 80.5646C49.2633 81.3883 50.087 87.9779 50.6361 88.8016C51.1853 89.6253 53.9309 90.7236 56.1275 90.9982C58.8731 91.2727 62.4425 90.449 64.0899 89.3507C65.4627 88.2525 66.2864 80.5646 66.0118 80.0155C65.7373 79.4664 61.0697 77.5444 58.0494 77.5444C55.0292 77.5444 49.5378 80.0155 49.5378 80.5646H49.2633Z" fill="#37474F"/>
<path d="M50.3625 87.9774C51.4608 88.5265 52.559 89.0757 53.3827 89.3502C54.481 89.6248 55.5793 89.8994 56.6775 89.8994C57.7758 89.8994 58.8741 89.8994 59.9723 89.3502C61.0706 89.3502 62.1688 88.8011 63.2671 88.252C62.1688 88.8011 61.0706 89.0757 59.9723 89.3502C58.8741 89.3502 57.7758 89.8994 56.6775 89.8994C55.5793 89.8994 54.481 89.6248 53.3827 89.3502C52.2845 89.0757 51.1862 88.5265 50.3625 87.9774Z" fill="#263238"/>
<path d="M53.6573 88.5285C54.7555 88.8031 55.8538 89.0777 57.2267 89.0777C58.3249 89.0777 59.6978 89.0777 60.796 88.5285C59.6978 88.8031 58.3249 89.0777 57.2267 89.0777C56.1284 89.0777 54.7555 88.8031 53.6573 88.5285Z" fill="#263238"/>
<path d="M50.087 86.3302C51.1852 86.8794 52.2835 87.4285 53.3818 87.7031C54.4801 87.9776 55.8529 88.5268 56.9511 88.2522C58.0494 88.2522 59.4222 88.2522 60.5205 87.7031C61.6188 87.4285 62.9916 87.1539 64.0899 86.6048C62.9916 87.1539 61.8933 87.4285 60.5205 87.7031C59.4222 87.9776 58.0494 88.2522 56.9511 88.2522C55.5783 88.2522 54.4801 87.9776 53.3818 87.4285C52.2835 87.1539 51.1852 86.6048 50.087 86.0557V86.3302Z" fill="#263238"/>
<path d="M50.3625 85.5085C51.4608 86.0577 52.559 86.6068 53.6573 86.8814C54.7555 87.1559 56.1284 87.7051 57.2267 87.4305C58.3249 87.4305 59.6978 87.4305 60.796 86.8814C61.8943 86.6068 63.2671 86.3322 64.3654 85.7831C63.2671 86.3322 62.1689 86.6068 60.796 86.8814C59.6978 87.1559 58.3249 87.4305 57.2267 87.4305C55.8538 87.4305 54.7555 87.1559 53.6573 86.6068C52.559 86.3322 51.4608 85.7831 50.3625 85.2339V85.5085Z" fill="#263238"/>
<path d="M50.087 84.6842C51.1852 85.2333 52.2835 85.7825 53.6563 86.057C54.7546 86.3316 56.1275 86.8807 57.5003 86.8807C58.8731 86.8807 59.9714 86.8807 61.3442 86.3316C62.7171 86.057 63.8153 85.7824 64.9136 85.2333C63.8153 85.7824 62.4425 86.057 61.3442 86.3316C59.9714 86.6062 58.8731 86.8807 57.5003 86.8807C56.1275 86.8807 55.0292 86.6062 53.6563 86.057C52.5581 85.5079 51.1852 85.2333 50.087 84.4096V84.6842Z" fill="#263238"/>
<path d="M50.087 83.5853C51.1852 84.1344 52.5581 84.6835 53.6563 85.2326C55.0292 85.7818 56.1275 86.0563 57.5003 86.0563C58.8731 86.0563 59.9714 86.0564 61.3442 85.5072C62.7171 85.2327 63.8153 84.6835 65.1881 84.4089C64.0899 84.9581 62.7171 85.2327 61.3442 85.5072C59.9714 85.7818 58.8731 86.0563 57.5003 86.0563C56.1275 86.0563 54.7546 85.7818 53.6563 85.2326C52.2835 84.6835 51.1852 84.1344 50.087 83.5853Z" fill="#263238"/>
<path d="M49.8129 82.7635C50.9112 83.3127 52.284 83.8618 53.6568 84.4109C55.0296 84.9601 56.4025 85.2346 57.7753 85.2346C59.1481 85.2346 60.521 85.2346 61.8938 84.6855C63.2666 84.4109 64.6395 83.8618 65.7378 83.5873C64.3649 84.1364 63.2666 84.411 61.8938 84.9601C60.521 85.2347 59.1481 85.5092 57.7753 85.5092C56.4025 85.5092 55.0296 85.2346 53.6568 84.6855C52.284 84.1364 51.1857 83.5872 49.8129 83.0381V82.7635Z" fill="#263238"/>
<path d="M49.5389 81.9391C50.9117 82.4883 52.01 83.0374 53.3828 83.5866C54.7557 84.1357 56.1285 84.4102 57.5013 84.4102C58.8742 84.4102 60.247 84.4102 61.6198 83.8611C62.9927 83.5865 64.3655 83.0374 65.7383 82.7629C64.3655 83.312 62.9927 83.5866 61.6198 84.1357C60.247 84.4103 58.8742 84.6848 57.5013 84.6848C56.1285 84.6848 54.7557 84.4102 53.3828 83.8611C52.01 83.312 50.9117 82.7629 49.5389 82.2137V81.9391Z" fill="#263238"/>
<path d="M90.174 81.6594C90.174 81.6594 92.0959 81.1103 94.2925 80.8358C96.489 80.5612 98.1364 78.9138 98.411 76.7173L101.157 59.6941C101.431 57.4976 100.333 55.3011 98.1364 54.4774L92.6451 52.2808L90.4486 81.6594H90.174Z" fill="#2BB673"/>
<g opacity="0.2">
<path d="M90.1739 81.6594C90.1739 81.6594 92.0959 81.1103 94.2924 80.8358C96.4889 80.5612 98.1363 78.9138 98.4109 76.7173L101.157 59.6941C101.431 57.4976 100.333 55.3011 98.1363 54.4774L92.645 52.2808L90.4485 81.6594H90.1739Z" fill="black"/>
</g>
<path d="M25.6514 81.1107C25.6514 81.1107 23.4549 80.8362 21.5329 80.5616C19.3364 80.5616 17.689 78.6397 17.4144 76.7177L14.1196 59.6945C13.5705 57.498 14.9433 55.3015 16.8653 54.2032L22.3566 51.7321L25.6514 81.1107Z" fill="#2BB673"/>
<g opacity="0.2">
<path d="M25.6513 81.1107C25.6513 81.1107 23.4548 80.8362 21.5328 80.5616C19.3363 80.5616 17.6889 78.6397 17.4143 76.7177L14.1195 59.6945C13.5704 57.498 14.9432 55.3015 16.8652 54.2032L22.3565 51.7321L25.6513 81.1107Z" fill="black"/>
</g>
<path d="M90.449 85.7815C90.449 85.7815 94.2929 64.0908 94.842 30.5936C94.842 30.5936 54.2062 24.2786 20.9836 30.3191C20.9836 30.3191 22.3565 73.1515 25.3767 84.9578C25.3767 84.9578 59.423 86.6052 90.449 86.0561V85.7815Z" fill="#2BB673"/>
<path d="M86.0559 82.2124C86.0559 82.2124 89.3507 64.6401 89.8998 35.2615C89.8998 35.2615 49.264 30.0447 25.9258 34.9869C25.9258 34.9869 27.2986 70.9552 29.7697 81.3887C29.7697 81.3887 59.1484 83.0361 86.3305 82.2124H86.0559Z" fill="#37474F"/>
<path d="M25.925 36.0838C25.925 42.3989 27.5723 72.0521 29.4943 81.3873C29.4943 81.3873 57.7747 82.7602 84.4076 82.211C84.9567 79.1908 87.7024 62.7168 87.977 36.633C87.977 36.633 48.9885 31.6908 25.6504 36.0838H25.925Z" fill="#263238"/>
<path d="M78.3668 35.81L31.9651 35.2609C31.9651 35.2609 32.2397 35.2609 32.5142 35.2609C32.5142 35.2609 32.7888 35.2609 33.0634 35.2609L76.994 35.81C76.994 35.81 77.5431 35.81 77.8177 35.81C77.8177 35.81 78.3669 35.81 78.6414 35.81H78.3668Z" fill="#455A64"/>
<path d="M88.253 36.9051L25.9265 36.356C25.9265 36.356 25.9264 36.356 26.201 36.356L87.7039 36.9051H87.9785H88.253Z" fill="#455A64"/>
<path d="M86.878 61.62L27.297 61.0708L87.1525 61.62H86.878Z" fill="#455A64"/>
<path d="M86.6069 66.5604L27.8497 66.0113L86.8815 66.5604H86.6069Z" fill="#455A64"/>
<path d="M85.5061 74.2474L28.3962 73.6982L85.7806 74.2474H85.5061Z" fill="#455A64"/>
<path d="M84.9588 79.1908L29.2218 78.6417L85.2334 79.1908H84.9588Z" fill="#455A64"/>
<path d="M84.409 82.2074C83.8598 82.2074 83.3107 82.2074 82.7616 82.2074L42.9495 81.6582C42.1258 81.6582 41.302 81.6582 40.4783 81.6582C39.6546 81.6582 39.1055 81.6582 38.2818 81.6582L84.6836 82.2074H84.409Z" fill="#455A64"/>
<path d="M53.6569 63.8101C53.6569 64.9084 53.6569 66.0067 54.4806 67.105C54.7551 67.6541 55.3043 67.9286 55.8534 68.2032C56.4025 68.4778 56.9517 68.4778 57.5008 68.7523C58.05 68.7523 58.5991 68.7523 59.1482 68.2032C59.6973 67.9286 60.2465 67.3795 60.521 66.8304C61.0702 65.7321 61.3447 64.6338 61.3447 63.5356C61.0702 64.6338 60.521 65.4575 59.9719 66.2812C59.4228 67.1049 58.5991 67.3795 57.5008 67.3795C56.4026 67.3795 55.5788 67.1049 55.0297 66.2812C54.4806 65.4575 53.9314 64.6338 53.6569 63.5356V63.8101Z" fill="#2BB673"/>
<path d="M74.2485 62.1652C77.2688 62.1652 77.2688 68.2056 74.2485 68.2056C71.5029 68.2056 71.5029 62.1652 74.2485 62.1652Z" fill="#2BB673"/>
<path d="M39.6538 61.8895C42.674 61.8895 42.674 67.93 39.6538 67.93C36.9081 67.93 36.9081 61.8895 39.6538 61.8895Z" fill="#2BB673"/>
<path d="M30.3184 62.1667C29.2201 54.2043 28.9456 46.2418 28.671 38.2794C32.7895 37.4557 36.908 36.632 41.0265 36.3574C45.145 36.0828 48.9889 36.0828 53.1074 36.3574C48.9889 36.632 45.145 37.1811 41.301 37.7302C37.4571 38.2794 33.3386 38.8285 29.4947 39.6522L30.0438 39.1031C30.0438 46.7909 30.0438 54.4788 30.0438 62.4412L30.3184 62.1667Z" fill="#455A64"/>
<path d="M44.3212 97.3099C44.0466 98.9573 43.2229 100.33 42.3992 101.154C42.1247 101.428 41.8501 101.703 41.301 101.978C41.0264 101.978 40.7518 101.978 40.4772 101.703C39.6535 101.428 38.5553 100.879 37.7316 100.605C36.9079 99.2319 36.6333 96.7608 37.1825 94.5643C37.457 93.1914 38.0062 92.0931 38.5553 91.2694C38.8299 90.7203 39.1044 90.4457 39.6536 90.1712C40.4773 89.622 41.3009 89.622 41.8501 89.8966C43.772 90.7203 44.8703 94.0151 44.0466 97.5845L44.3212 97.3099Z" fill="#37474F"/>
<path d="M37.1827 94.5623C36.6336 97.308 37.4573 100.328 39.1047 100.877C40.7521 101.426 42.3995 99.779 42.9486 96.7588C43.4978 94.2877 42.9486 91.8166 41.5758 90.7183C41.5758 90.7183 41.3012 90.7184 41.0267 90.4438C39.3793 89.8947 37.7319 91.5421 37.1827 94.5623Z" fill="#455A64"/>
<path d="M38.0062 94.8406C37.457 97.3117 38.0062 100.057 39.379 100.881C41.0264 101.43 42.6738 99.7828 43.2229 96.7626C43.7721 94.2915 43.2229 91.8204 41.8501 90.7221C40.2027 90.173 38.5553 91.8204 38.0062 94.8406Z" fill="#263238"/>
<path d="M39.3783 93.7399L41.3003 94.2891C41.3003 94.2891 41.8494 95.1127 41.5749 96.211C41.5749 97.0347 41.0257 97.8584 40.7512 97.5838L38.8292 97.0347L39.3783 93.7399Z" fill="#37474F"/>
<path d="M39.3803 93.7399C39.105 93.7399 38.5543 94.289 38.5543 95.3873C38.5543 96.211 38.5543 97.0347 38.8296 97.3093C39.105 97.3093 39.6557 96.7602 39.6557 95.6619C39.6557 94.8382 39.6557 94.0145 39.3803 93.7399Z" fill="#455A64"/>
<path d="M42.3988 101.154V101.429V101.978C42.1243 101.978 41.8497 101.978 41.5751 101.703C41.3006 101.703 41.026 101.703 40.7514 101.429C39.9277 101.154 38.8295 100.605 38.0058 100.33C36.3584 99.5065 34.9855 98.9574 33.6127 97.8592C34.1618 96.7609 34.711 95.6626 35.2601 95.1135C36.3584 93.7407 37.4566 91.8187 38.8295 91.2695C38.8295 91.2695 39.104 91.2695 39.3786 91.2695C39.3786 91.2695 39.6531 91.2695 39.9277 91.2695C39.9277 91.2695 40.2023 91.2695 40.4768 91.2695C40.7514 91.2695 41.026 91.2696 41.3005 91.8187C42.1242 92.6424 42.948 96.2118 42.948 99.232C42.948 100.056 42.948 100.879 42.948 101.429L42.3988 101.154Z" fill="#2BB673"/>
<path d="M77.2705 100.608C76.4468 100.882 75.6231 101.432 74.5249 101.706C74.2503 101.706 73.9757 101.706 73.7012 101.981C73.4266 101.981 72.8775 101.432 72.6029 101.157C71.7792 100.333 71.2301 98.9604 70.9555 97.313C70.4064 94.0182 71.2301 90.4489 73.152 89.6252C73.9757 89.3506 74.7994 89.6252 75.6231 90.1743C75.8977 90.1743 76.4468 90.7234 76.7214 91.2725C77.2705 92.0962 77.8197 93.1945 78.0942 94.5674C78.6434 96.7639 78.0942 98.9604 77.5451 100.608H77.2705Z" fill="#37474F"/>
<path d="M77.8205 94.5675C78.3697 97.3132 77.546 100.333 75.8986 100.883C74.2512 101.432 72.6037 99.7843 72.0546 96.764C71.5055 94.293 72.0546 91.8219 73.4274 90.7236C73.4274 90.7236 73.702 90.7236 73.9766 90.4491C75.624 89.8999 77.2714 91.5473 77.8205 94.5675Z" fill="#455A64"/>
<path d="M77.2714 94.8406C77.8205 97.3117 77.2714 100.057 75.8986 100.881C74.2512 101.43 72.6037 99.7828 72.0546 96.7626C71.5055 94.2915 72.0546 91.8204 73.4274 90.7221C75.0748 90.173 76.7223 91.8204 77.2714 94.8406Z" fill="#263238"/>
<path d="M75.8981 93.7452L73.9762 94.2944C73.9762 94.2944 73.427 95.1181 73.7016 96.2163C73.7016 97.04 74.2507 97.8637 74.5253 97.5892L76.4472 97.04L75.8981 93.7452Z" fill="#37474F"/>
<path d="M75.9001 93.7452C76.1754 93.7452 76.7261 94.2943 76.7261 95.3926C76.7261 96.2163 76.7261 97.04 76.4508 97.3146C76.1754 97.3146 75.6247 96.7655 75.6247 95.6672C75.6247 94.8435 75.6247 94.0198 75.9001 93.7452Z" fill="#455A64"/>
<path d="M81.6642 98.1352C80.2914 98.9589 78.644 99.7826 77.2712 100.606C76.4475 100.881 75.6238 101.43 74.5255 101.705C74.251 101.705 73.9764 101.705 73.7018 101.979C73.4273 101.979 73.1527 101.979 72.8781 102.254V101.705C72.8781 101.705 72.8781 101.705 72.8781 101.155C72.8781 100.606 72.8781 99.7826 72.8781 98.9589C72.8781 95.9387 73.7018 92.0948 74.5255 91.5456C74.5255 91.5456 75.0747 91.2711 75.3492 90.9965C75.3492 90.9965 75.6238 90.9965 75.8984 90.9965C75.8984 90.9965 76.1729 90.9965 76.4475 90.9965C76.4475 90.9965 76.722 90.9965 76.9966 90.9965C78.0949 91.5457 79.4677 93.4676 80.566 94.8404C81.1151 95.6641 81.6643 96.4878 82.2134 97.5861L81.6642 98.1352Z" fill="#2BB673"/>
</svg>
