<svg width="35" height="35" viewBox="0 0 35 35" fill="none" xmlns="http://www.w3.org/2000/svg">
<path d="M32.5375 19.9625C33.8975 11.6575 28.2675 3.82253 19.9625 2.46254C11.6575 1.10254 3.82248 6.73257 2.46249 15.0376C1.10249 23.3426 6.73253 31.1776 15.0375 32.5376C23.3425 33.8976 31.1775 28.2675 32.5375 19.9625Z" fill="#C7C7C7"/>
<path d="M18.049 7.16602C15.2 7.16602 12.8838 9.47289 12.8838 12.3105C12.8838 15.0939 15.0695 17.3466 17.9185 17.4441C18.0055 17.4332 18.0925 17.4332 18.1577 17.4441C18.1795 17.4441 18.1904 17.4441 18.2121 17.4441C18.223 17.4441 18.223 17.4441 18.2338 17.4441C21.0176 17.3466 23.2033 15.0939 23.2142 12.3105C23.2142 9.47289 20.898 7.16602 18.049 7.16602Z" fill="#2BB673"/>
<path d="M23.5727 20.3246C20.5388 18.3101 15.5911 18.3101 12.5355 20.3246C11.1545 21.2451 10.3933 22.4906 10.3933 23.8228C10.3933 25.1549 11.1545 26.3896 12.5246 27.2993C14.047 28.3174 16.0478 28.8264 18.0487 28.8264C20.0495 28.8264 22.0504 28.3174 23.5727 27.2993C24.9429 26.3788 25.7041 25.1441 25.7041 23.8011C25.6932 22.469 24.9429 21.2343 23.5727 20.3246Z" fill="#2BB673"/>
</svg>
